G04 #@! TF.GenerationSoftware,KiCad,Pcbnew,(5.1.4)-1*
G04 #@! TF.CreationDate,2020-02-24T00:27:31+00:00*
G04 #@! TF.ProjectId,SPS-BellDriver,5350532d-4265-46c6-9c44-72697665722e,1*
G04 #@! TF.SameCoordinates,Original*
G04 #@! TF.FileFunction,Copper,L1,Top*
G04 #@! TF.FilePolarity,Positive*
%FSLAX46Y46*%
G04 Gerber Fmt 4.6, Leading zero omitted, Abs format (unit mm)*
G04 Created by KiCad (PCBNEW (5.1.4)-1) date 2020-02-24 00:27:31*
%MOMM*%
%LPD*%
G04 APERTURE LIST*
%ADD10O,1.600000X1.600000*%
%ADD11C,1.600000*%
%ADD12O,1.700000X1.700000*%
%ADD13R,1.700000X1.700000*%
%ADD14O,2.200000X2.200000*%
%ADD15R,2.200000X2.200000*%
%ADD16C,1.800000*%
%ADD17R,1.800000X1.800000*%
%ADD18C,1.280000*%
%ADD19C,1.217000*%
%ADD20O,1.905000X2.000000*%
%ADD21R,1.905000X2.000000*%
%ADD22O,2.000000X1.905000*%
%ADD23R,2.000000X1.905000*%
%ADD24C,0.100000*%
%ADD25C,3.500000*%
%ADD26C,3.000000*%
%ADD27R,3.500000X3.500000*%
%ADD28O,3.600000X2.000000*%
%ADD29C,2.000000*%
%ADD30C,0.250000*%
%ADD31C,0.500000*%
G04 APERTURE END LIST*
D10*
X70580000Y-111000000D03*
D11*
X65500000Y-111000000D03*
D12*
X68400000Y-31500000D03*
X68400000Y-69600000D03*
X68400000Y-59440000D03*
X68400000Y-74680000D03*
X68400000Y-67060000D03*
X68400000Y-64520000D03*
X68400000Y-61980000D03*
X68400000Y-56900000D03*
X68400000Y-72140000D03*
X68400000Y-46740000D03*
X68400000Y-44200000D03*
X68400000Y-39120000D03*
X68400000Y-36580000D03*
X68400000Y-54360000D03*
X68400000Y-51820000D03*
X68400000Y-49280000D03*
X68400000Y-34040000D03*
X68400000Y-41660000D03*
X43000000Y-74680000D03*
X43000000Y-72140000D03*
X43000000Y-69600000D03*
X43000000Y-67060000D03*
X43000000Y-64520000D03*
X43000000Y-61980000D03*
X43000000Y-59440000D03*
X43000000Y-56900000D03*
X43000000Y-54360000D03*
X43000000Y-51820000D03*
X43000000Y-49280000D03*
X43000000Y-46740000D03*
X43000000Y-44200000D03*
X43000000Y-41660000D03*
X43000000Y-39120000D03*
X43000000Y-36580000D03*
X43000000Y-34040000D03*
D13*
X43000000Y-31500000D03*
D14*
X31380000Y-54000000D03*
D15*
X39000000Y-54000000D03*
D14*
X31380000Y-84000000D03*
D15*
X39000000Y-84000000D03*
D14*
X49620000Y-105500000D03*
D15*
X42000000Y-105500000D03*
D14*
X80500000Y-28000000D03*
D15*
X72880000Y-28000000D03*
D14*
X80500000Y-58000000D03*
D15*
X72880000Y-58000000D03*
D14*
X80620000Y-88000000D03*
D15*
X73000000Y-88000000D03*
D16*
X65500000Y-116540000D03*
D17*
X65500000Y-114000000D03*
D16*
X31000000Y-60040000D03*
D17*
X31000000Y-57500000D03*
D16*
X81000000Y-51960000D03*
D17*
X81000000Y-54500000D03*
D16*
X81000000Y-111960000D03*
D17*
X81000000Y-114500000D03*
D16*
X46500000Y-116540000D03*
D17*
X46500000Y-114000000D03*
D18*
X58540000Y-113000000D03*
X56000000Y-113000000D03*
X53460000Y-113000000D03*
D19*
X37500000Y-39000000D03*
X37500000Y-44500000D03*
X37500000Y-69000000D03*
X37500000Y-74500000D03*
X37500000Y-99000000D03*
X37500000Y-104500000D03*
X74000000Y-43000000D03*
X74000000Y-37500000D03*
X74000000Y-73000000D03*
X74000000Y-67500000D03*
X74000000Y-103000000D03*
X74000000Y-97500000D03*
D10*
X38500000Y-35540000D03*
D11*
X38500000Y-33000000D03*
D10*
X38500000Y-30040000D03*
D11*
X38500000Y-27500000D03*
D10*
X53000000Y-105000000D03*
D11*
X55540000Y-105000000D03*
D10*
X51000000Y-102000000D03*
D11*
X53540000Y-102000000D03*
D10*
X38500000Y-65500000D03*
D11*
X38500000Y-62960000D03*
D10*
X38500000Y-60040000D03*
D11*
X38500000Y-57500000D03*
D10*
X50960000Y-98000000D03*
D11*
X53500000Y-98000000D03*
D10*
X49460000Y-95500000D03*
D11*
X52000000Y-95500000D03*
D10*
X47960000Y-93000000D03*
D11*
X50500000Y-93000000D03*
D10*
X38500000Y-95540000D03*
D11*
X38500000Y-93000000D03*
D10*
X38500000Y-90040000D03*
D11*
X38500000Y-87500000D03*
D10*
X68540000Y-93000000D03*
D11*
X66000000Y-93000000D03*
D10*
X73000000Y-46500000D03*
D11*
X73000000Y-49040000D03*
D10*
X73000000Y-51960000D03*
D11*
X73000000Y-54500000D03*
D10*
X67040000Y-95500000D03*
D11*
X64500000Y-95500000D03*
D10*
X65540000Y-98000000D03*
D11*
X63000000Y-98000000D03*
D10*
X73000000Y-76500000D03*
D11*
X73000000Y-79040000D03*
D10*
X65540000Y-102000000D03*
D11*
X63000000Y-102000000D03*
D10*
X73000000Y-81960000D03*
D11*
X73000000Y-84500000D03*
D10*
X63540000Y-105000000D03*
D11*
X61000000Y-105000000D03*
X73000000Y-109040000D03*
D10*
X73000000Y-106500000D03*
X73000000Y-112000000D03*
D11*
X73000000Y-114540000D03*
D10*
X46500000Y-108460000D03*
D11*
X46500000Y-111000000D03*
D20*
X79080000Y-33500000D03*
X76540000Y-33500000D03*
D21*
X74000000Y-33500000D03*
D20*
X79080000Y-93500000D03*
X76540000Y-93500000D03*
D21*
X74000000Y-93500000D03*
D20*
X32420000Y-78420000D03*
X34960000Y-78420000D03*
D21*
X37500000Y-78420000D03*
D22*
X42000000Y-100540000D03*
X42000000Y-98000000D03*
D23*
X42000000Y-95460000D03*
D20*
X32420000Y-48500000D03*
X34960000Y-48500000D03*
D21*
X37500000Y-48500000D03*
D20*
X79080000Y-63500000D03*
X76540000Y-63500000D03*
D21*
X74000000Y-63500000D03*
D16*
X74000000Y-119500000D03*
X70500000Y-119500000D03*
X67000000Y-119500000D03*
X63500000Y-119500000D03*
D17*
X60000000Y-119500000D03*
D16*
X52000000Y-119500000D03*
X48500000Y-119500000D03*
X45000000Y-119500000D03*
X41500000Y-119500000D03*
D17*
X38000000Y-119500000D03*
D16*
X31000000Y-30040000D03*
D17*
X31000000Y-27500000D03*
D16*
X31000000Y-90040000D03*
D17*
X31000000Y-87500000D03*
D16*
X81000000Y-81960000D03*
D17*
X81000000Y-84500000D03*
D24*
G36*
X35460765Y-114754213D02*
G01*
X35545704Y-114766813D01*
X35628999Y-114787677D01*
X35709848Y-114816605D01*
X35787472Y-114853319D01*
X35861124Y-114897464D01*
X35930094Y-114948616D01*
X35993718Y-115006282D01*
X36051384Y-115069906D01*
X36102536Y-115138876D01*
X36146681Y-115212528D01*
X36183395Y-115290152D01*
X36212323Y-115371001D01*
X36233187Y-115454296D01*
X36245787Y-115539235D01*
X36250000Y-115625000D01*
X36250000Y-117375000D01*
X36245787Y-117460765D01*
X36233187Y-117545704D01*
X36212323Y-117628999D01*
X36183395Y-117709848D01*
X36146681Y-117787472D01*
X36102536Y-117861124D01*
X36051384Y-117930094D01*
X35993718Y-117993718D01*
X35930094Y-118051384D01*
X35861124Y-118102536D01*
X35787472Y-118146681D01*
X35709848Y-118183395D01*
X35628999Y-118212323D01*
X35545704Y-118233187D01*
X35460765Y-118245787D01*
X35375000Y-118250000D01*
X33625000Y-118250000D01*
X33539235Y-118245787D01*
X33454296Y-118233187D01*
X33371001Y-118212323D01*
X33290152Y-118183395D01*
X33212528Y-118146681D01*
X33138876Y-118102536D01*
X33069906Y-118051384D01*
X33006282Y-117993718D01*
X32948616Y-117930094D01*
X32897464Y-117861124D01*
X32853319Y-117787472D01*
X32816605Y-117709848D01*
X32787677Y-117628999D01*
X32766813Y-117545704D01*
X32754213Y-117460765D01*
X32750000Y-117375000D01*
X32750000Y-115625000D01*
X32754213Y-115539235D01*
X32766813Y-115454296D01*
X32787677Y-115371001D01*
X32816605Y-115290152D01*
X32853319Y-115212528D01*
X32897464Y-115138876D01*
X32948616Y-115069906D01*
X33006282Y-115006282D01*
X33069906Y-114948616D01*
X33138876Y-114897464D01*
X33212528Y-114853319D01*
X33290152Y-114816605D01*
X33371001Y-114787677D01*
X33454296Y-114766813D01*
X33539235Y-114754213D01*
X33625000Y-114750000D01*
X35375000Y-114750000D01*
X35460765Y-114754213D01*
X35460765Y-114754213D01*
G37*
D25*
X34500000Y-116500000D03*
D24*
G36*
X32323513Y-110053611D02*
G01*
X32396318Y-110064411D01*
X32467714Y-110082295D01*
X32537013Y-110107090D01*
X32603548Y-110138559D01*
X32666678Y-110176398D01*
X32725795Y-110220242D01*
X32780330Y-110269670D01*
X32829758Y-110324205D01*
X32873602Y-110383322D01*
X32911441Y-110446452D01*
X32942910Y-110512987D01*
X32967705Y-110582286D01*
X32985589Y-110653682D01*
X32996389Y-110726487D01*
X33000000Y-110800000D01*
X33000000Y-112800000D01*
X32996389Y-112873513D01*
X32985589Y-112946318D01*
X32967705Y-113017714D01*
X32942910Y-113087013D01*
X32911441Y-113153548D01*
X32873602Y-113216678D01*
X32829758Y-113275795D01*
X32780330Y-113330330D01*
X32725795Y-113379758D01*
X32666678Y-113423602D01*
X32603548Y-113461441D01*
X32537013Y-113492910D01*
X32467714Y-113517705D01*
X32396318Y-113535589D01*
X32323513Y-113546389D01*
X32250000Y-113550000D01*
X30750000Y-113550000D01*
X30676487Y-113546389D01*
X30603682Y-113535589D01*
X30532286Y-113517705D01*
X30462987Y-113492910D01*
X30396452Y-113461441D01*
X30333322Y-113423602D01*
X30274205Y-113379758D01*
X30219670Y-113330330D01*
X30170242Y-113275795D01*
X30126398Y-113216678D01*
X30088559Y-113153548D01*
X30057090Y-113087013D01*
X30032295Y-113017714D01*
X30014411Y-112946318D01*
X30003611Y-112873513D01*
X30000000Y-112800000D01*
X30000000Y-110800000D01*
X30003611Y-110726487D01*
X30014411Y-110653682D01*
X30032295Y-110582286D01*
X30057090Y-110512987D01*
X30088559Y-110446452D01*
X30126398Y-110383322D01*
X30170242Y-110324205D01*
X30219670Y-110269670D01*
X30274205Y-110220242D01*
X30333322Y-110176398D01*
X30396452Y-110138559D01*
X30462987Y-110107090D01*
X30532286Y-110082295D01*
X30603682Y-110064411D01*
X30676487Y-110053611D01*
X30750000Y-110050000D01*
X32250000Y-110050000D01*
X32323513Y-110053611D01*
X32323513Y-110053611D01*
G37*
D26*
X31500000Y-111800000D03*
D27*
X37500000Y-111800000D03*
D28*
X32000000Y-42500000D03*
D24*
G36*
X33574504Y-36501204D02*
G01*
X33598773Y-36504804D01*
X33622571Y-36510765D01*
X33645671Y-36519030D01*
X33667849Y-36529520D01*
X33688893Y-36542133D01*
X33708598Y-36556747D01*
X33726777Y-36573223D01*
X33743253Y-36591402D01*
X33757867Y-36611107D01*
X33770480Y-36632151D01*
X33780970Y-36654329D01*
X33789235Y-36677429D01*
X33795196Y-36701227D01*
X33798796Y-36725496D01*
X33800000Y-36750000D01*
X33800000Y-38250000D01*
X33798796Y-38274504D01*
X33795196Y-38298773D01*
X33789235Y-38322571D01*
X33780970Y-38345671D01*
X33770480Y-38367849D01*
X33757867Y-38388893D01*
X33743253Y-38408598D01*
X33726777Y-38426777D01*
X33708598Y-38443253D01*
X33688893Y-38457867D01*
X33667849Y-38470480D01*
X33645671Y-38480970D01*
X33622571Y-38489235D01*
X33598773Y-38495196D01*
X33574504Y-38498796D01*
X33550000Y-38500000D01*
X30450000Y-38500000D01*
X30425496Y-38498796D01*
X30401227Y-38495196D01*
X30377429Y-38489235D01*
X30354329Y-38480970D01*
X30332151Y-38470480D01*
X30311107Y-38457867D01*
X30291402Y-38443253D01*
X30273223Y-38426777D01*
X30256747Y-38408598D01*
X30242133Y-38388893D01*
X30229520Y-38367849D01*
X30219030Y-38345671D01*
X30210765Y-38322571D01*
X30204804Y-38298773D01*
X30201204Y-38274504D01*
X30200000Y-38250000D01*
X30200000Y-36750000D01*
X30201204Y-36725496D01*
X30204804Y-36701227D01*
X30210765Y-36677429D01*
X30219030Y-36654329D01*
X30229520Y-36632151D01*
X30242133Y-36611107D01*
X30256747Y-36591402D01*
X30273223Y-36573223D01*
X30291402Y-36556747D01*
X30311107Y-36542133D01*
X30332151Y-36529520D01*
X30354329Y-36519030D01*
X30377429Y-36510765D01*
X30401227Y-36504804D01*
X30425496Y-36501204D01*
X30450000Y-36500000D01*
X33550000Y-36500000D01*
X33574504Y-36501204D01*
X33574504Y-36501204D01*
G37*
D29*
X32000000Y-37500000D03*
D28*
X32000000Y-72500000D03*
D24*
G36*
X33574504Y-66501204D02*
G01*
X33598773Y-66504804D01*
X33622571Y-66510765D01*
X33645671Y-66519030D01*
X33667849Y-66529520D01*
X33688893Y-66542133D01*
X33708598Y-66556747D01*
X33726777Y-66573223D01*
X33743253Y-66591402D01*
X33757867Y-66611107D01*
X33770480Y-66632151D01*
X33780970Y-66654329D01*
X33789235Y-66677429D01*
X33795196Y-66701227D01*
X33798796Y-66725496D01*
X33800000Y-66750000D01*
X33800000Y-68250000D01*
X33798796Y-68274504D01*
X33795196Y-68298773D01*
X33789235Y-68322571D01*
X33780970Y-68345671D01*
X33770480Y-68367849D01*
X33757867Y-68388893D01*
X33743253Y-68408598D01*
X33726777Y-68426777D01*
X33708598Y-68443253D01*
X33688893Y-68457867D01*
X33667849Y-68470480D01*
X33645671Y-68480970D01*
X33622571Y-68489235D01*
X33598773Y-68495196D01*
X33574504Y-68498796D01*
X33550000Y-68500000D01*
X30450000Y-68500000D01*
X30425496Y-68498796D01*
X30401227Y-68495196D01*
X30377429Y-68489235D01*
X30354329Y-68480970D01*
X30332151Y-68470480D01*
X30311107Y-68457867D01*
X30291402Y-68443253D01*
X30273223Y-68426777D01*
X30256747Y-68408598D01*
X30242133Y-68388893D01*
X30229520Y-68367849D01*
X30219030Y-68345671D01*
X30210765Y-68322571D01*
X30204804Y-68298773D01*
X30201204Y-68274504D01*
X30200000Y-68250000D01*
X30200000Y-66750000D01*
X30201204Y-66725496D01*
X30204804Y-66701227D01*
X30210765Y-66677429D01*
X30219030Y-66654329D01*
X30229520Y-66632151D01*
X30242133Y-66611107D01*
X30256747Y-66591402D01*
X30273223Y-66573223D01*
X30291402Y-66556747D01*
X30311107Y-66542133D01*
X30332151Y-66529520D01*
X30354329Y-66519030D01*
X30377429Y-66510765D01*
X30401227Y-66504804D01*
X30425496Y-66501204D01*
X30450000Y-66500000D01*
X33550000Y-66500000D01*
X33574504Y-66501204D01*
X33574504Y-66501204D01*
G37*
D29*
X32000000Y-67500000D03*
D28*
X32000000Y-102500000D03*
D24*
G36*
X33574504Y-96501204D02*
G01*
X33598773Y-96504804D01*
X33622571Y-96510765D01*
X33645671Y-96519030D01*
X33667849Y-96529520D01*
X33688893Y-96542133D01*
X33708598Y-96556747D01*
X33726777Y-96573223D01*
X33743253Y-96591402D01*
X33757867Y-96611107D01*
X33770480Y-96632151D01*
X33780970Y-96654329D01*
X33789235Y-96677429D01*
X33795196Y-96701227D01*
X33798796Y-96725496D01*
X33800000Y-96750000D01*
X33800000Y-98250000D01*
X33798796Y-98274504D01*
X33795196Y-98298773D01*
X33789235Y-98322571D01*
X33780970Y-98345671D01*
X33770480Y-98367849D01*
X33757867Y-98388893D01*
X33743253Y-98408598D01*
X33726777Y-98426777D01*
X33708598Y-98443253D01*
X33688893Y-98457867D01*
X33667849Y-98470480D01*
X33645671Y-98480970D01*
X33622571Y-98489235D01*
X33598773Y-98495196D01*
X33574504Y-98498796D01*
X33550000Y-98500000D01*
X30450000Y-98500000D01*
X30425496Y-98498796D01*
X30401227Y-98495196D01*
X30377429Y-98489235D01*
X30354329Y-98480970D01*
X30332151Y-98470480D01*
X30311107Y-98457867D01*
X30291402Y-98443253D01*
X30273223Y-98426777D01*
X30256747Y-98408598D01*
X30242133Y-98388893D01*
X30229520Y-98367849D01*
X30219030Y-98345671D01*
X30210765Y-98322571D01*
X30204804Y-98298773D01*
X30201204Y-98274504D01*
X30200000Y-98250000D01*
X30200000Y-96750000D01*
X30201204Y-96725496D01*
X30204804Y-96701227D01*
X30210765Y-96677429D01*
X30219030Y-96654329D01*
X30229520Y-96632151D01*
X30242133Y-96611107D01*
X30256747Y-96591402D01*
X30273223Y-96573223D01*
X30291402Y-96556747D01*
X30311107Y-96542133D01*
X30332151Y-96529520D01*
X30354329Y-96519030D01*
X30377429Y-96510765D01*
X30401227Y-96504804D01*
X30425496Y-96501204D01*
X30450000Y-96500000D01*
X33550000Y-96500000D01*
X33574504Y-96501204D01*
X33574504Y-96501204D01*
G37*
D29*
X32000000Y-97500000D03*
D28*
X79500000Y-39648000D03*
D24*
G36*
X81074504Y-43649204D02*
G01*
X81098773Y-43652804D01*
X81122571Y-43658765D01*
X81145671Y-43667030D01*
X81167849Y-43677520D01*
X81188893Y-43690133D01*
X81208598Y-43704747D01*
X81226777Y-43721223D01*
X81243253Y-43739402D01*
X81257867Y-43759107D01*
X81270480Y-43780151D01*
X81280970Y-43802329D01*
X81289235Y-43825429D01*
X81295196Y-43849227D01*
X81298796Y-43873496D01*
X81300000Y-43898000D01*
X81300000Y-45398000D01*
X81298796Y-45422504D01*
X81295196Y-45446773D01*
X81289235Y-45470571D01*
X81280970Y-45493671D01*
X81270480Y-45515849D01*
X81257867Y-45536893D01*
X81243253Y-45556598D01*
X81226777Y-45574777D01*
X81208598Y-45591253D01*
X81188893Y-45605867D01*
X81167849Y-45618480D01*
X81145671Y-45628970D01*
X81122571Y-45637235D01*
X81098773Y-45643196D01*
X81074504Y-45646796D01*
X81050000Y-45648000D01*
X77950000Y-45648000D01*
X77925496Y-45646796D01*
X77901227Y-45643196D01*
X77877429Y-45637235D01*
X77854329Y-45628970D01*
X77832151Y-45618480D01*
X77811107Y-45605867D01*
X77791402Y-45591253D01*
X77773223Y-45574777D01*
X77756747Y-45556598D01*
X77742133Y-45536893D01*
X77729520Y-45515849D01*
X77719030Y-45493671D01*
X77710765Y-45470571D01*
X77704804Y-45446773D01*
X77701204Y-45422504D01*
X77700000Y-45398000D01*
X77700000Y-43898000D01*
X77701204Y-43873496D01*
X77704804Y-43849227D01*
X77710765Y-43825429D01*
X77719030Y-43802329D01*
X77729520Y-43780151D01*
X77742133Y-43759107D01*
X77756747Y-43739402D01*
X77773223Y-43721223D01*
X77791402Y-43704747D01*
X77811107Y-43690133D01*
X77832151Y-43677520D01*
X77854329Y-43667030D01*
X77877429Y-43658765D01*
X77901227Y-43652804D01*
X77925496Y-43649204D01*
X77950000Y-43648000D01*
X81050000Y-43648000D01*
X81074504Y-43649204D01*
X81074504Y-43649204D01*
G37*
D29*
X79500000Y-44648000D03*
D28*
X79500000Y-69596000D03*
D24*
G36*
X81074504Y-73597204D02*
G01*
X81098773Y-73600804D01*
X81122571Y-73606765D01*
X81145671Y-73615030D01*
X81167849Y-73625520D01*
X81188893Y-73638133D01*
X81208598Y-73652747D01*
X81226777Y-73669223D01*
X81243253Y-73687402D01*
X81257867Y-73707107D01*
X81270480Y-73728151D01*
X81280970Y-73750329D01*
X81289235Y-73773429D01*
X81295196Y-73797227D01*
X81298796Y-73821496D01*
X81300000Y-73846000D01*
X81300000Y-75346000D01*
X81298796Y-75370504D01*
X81295196Y-75394773D01*
X81289235Y-75418571D01*
X81280970Y-75441671D01*
X81270480Y-75463849D01*
X81257867Y-75484893D01*
X81243253Y-75504598D01*
X81226777Y-75522777D01*
X81208598Y-75539253D01*
X81188893Y-75553867D01*
X81167849Y-75566480D01*
X81145671Y-75576970D01*
X81122571Y-75585235D01*
X81098773Y-75591196D01*
X81074504Y-75594796D01*
X81050000Y-75596000D01*
X77950000Y-75596000D01*
X77925496Y-75594796D01*
X77901227Y-75591196D01*
X77877429Y-75585235D01*
X77854329Y-75576970D01*
X77832151Y-75566480D01*
X77811107Y-75553867D01*
X77791402Y-75539253D01*
X77773223Y-75522777D01*
X77756747Y-75504598D01*
X77742133Y-75484893D01*
X77729520Y-75463849D01*
X77719030Y-75441671D01*
X77710765Y-75418571D01*
X77704804Y-75394773D01*
X77701204Y-75370504D01*
X77700000Y-75346000D01*
X77700000Y-73846000D01*
X77701204Y-73821496D01*
X77704804Y-73797227D01*
X77710765Y-73773429D01*
X77719030Y-73750329D01*
X77729520Y-73728151D01*
X77742133Y-73707107D01*
X77756747Y-73687402D01*
X77773223Y-73669223D01*
X77791402Y-73652747D01*
X77811107Y-73638133D01*
X77832151Y-73625520D01*
X77854329Y-73615030D01*
X77877429Y-73606765D01*
X77901227Y-73600804D01*
X77925496Y-73597204D01*
X77950000Y-73596000D01*
X81050000Y-73596000D01*
X81074504Y-73597204D01*
X81074504Y-73597204D01*
G37*
D29*
X79500000Y-74596000D03*
D28*
X79500000Y-99425000D03*
D24*
G36*
X81074504Y-103426204D02*
G01*
X81098773Y-103429804D01*
X81122571Y-103435765D01*
X81145671Y-103444030D01*
X81167849Y-103454520D01*
X81188893Y-103467133D01*
X81208598Y-103481747D01*
X81226777Y-103498223D01*
X81243253Y-103516402D01*
X81257867Y-103536107D01*
X81270480Y-103557151D01*
X81280970Y-103579329D01*
X81289235Y-103602429D01*
X81295196Y-103626227D01*
X81298796Y-103650496D01*
X81300000Y-103675000D01*
X81300000Y-105175000D01*
X81298796Y-105199504D01*
X81295196Y-105223773D01*
X81289235Y-105247571D01*
X81280970Y-105270671D01*
X81270480Y-105292849D01*
X81257867Y-105313893D01*
X81243253Y-105333598D01*
X81226777Y-105351777D01*
X81208598Y-105368253D01*
X81188893Y-105382867D01*
X81167849Y-105395480D01*
X81145671Y-105405970D01*
X81122571Y-105414235D01*
X81098773Y-105420196D01*
X81074504Y-105423796D01*
X81050000Y-105425000D01*
X77950000Y-105425000D01*
X77925496Y-105423796D01*
X77901227Y-105420196D01*
X77877429Y-105414235D01*
X77854329Y-105405970D01*
X77832151Y-105395480D01*
X77811107Y-105382867D01*
X77791402Y-105368253D01*
X77773223Y-105351777D01*
X77756747Y-105333598D01*
X77742133Y-105313893D01*
X77729520Y-105292849D01*
X77719030Y-105270671D01*
X77710765Y-105247571D01*
X77704804Y-105223773D01*
X77701204Y-105199504D01*
X77700000Y-105175000D01*
X77700000Y-103675000D01*
X77701204Y-103650496D01*
X77704804Y-103626227D01*
X77710765Y-103602429D01*
X77719030Y-103579329D01*
X77729520Y-103557151D01*
X77742133Y-103536107D01*
X77756747Y-103516402D01*
X77773223Y-103498223D01*
X77791402Y-103481747D01*
X77811107Y-103467133D01*
X77832151Y-103454520D01*
X77854329Y-103444030D01*
X77877429Y-103435765D01*
X77901227Y-103429804D01*
X77925496Y-103426204D01*
X77950000Y-103425000D01*
X81050000Y-103425000D01*
X81074504Y-103426204D01*
X81074504Y-103426204D01*
G37*
D29*
X79500000Y-104425000D03*
D30*
X50500000Y-77100000D02*
X50500000Y-93000000D01*
X43000000Y-69600000D02*
X50500000Y-77100000D01*
X56500000Y-104040000D02*
X55540000Y-105000000D01*
X43000000Y-59440000D02*
X56500000Y-72940000D01*
X56500000Y-72940000D02*
X56500000Y-104040000D01*
X52000000Y-76060000D02*
X52000000Y-95500000D01*
X43000000Y-67060000D02*
X52000000Y-76060000D01*
X53500000Y-75020000D02*
X53500000Y-98000000D01*
X43000000Y-64520000D02*
X53500000Y-75020000D01*
X55000000Y-100540000D02*
X53540000Y-102000000D01*
X43000000Y-61980000D02*
X55000000Y-73980000D01*
X55000000Y-73980000D02*
X55000000Y-100540000D01*
X60000000Y-104000000D02*
X61000000Y-105000000D01*
X43000000Y-56900000D02*
X60000000Y-73900000D01*
X60000000Y-73900000D02*
X60000000Y-104000000D01*
X66000000Y-69740000D02*
X66000000Y-93000000D01*
X43000000Y-46740000D02*
X66000000Y-69740000D01*
X71000000Y-107040000D02*
X73000000Y-109040000D01*
X51800000Y-53000000D02*
X69000000Y-53000000D01*
X43000000Y-44200000D02*
X51800000Y-53000000D01*
X69000000Y-53000000D02*
X70549990Y-54549990D01*
X70549990Y-54549990D02*
X70549991Y-77226401D01*
X70549991Y-77226401D02*
X71000000Y-77676410D01*
X71000000Y-77676410D02*
X71000000Y-107040000D01*
X72200001Y-48240001D02*
X73000000Y-49040000D01*
X72064999Y-48104999D02*
X72200001Y-48240001D01*
X51984999Y-48104999D02*
X72064999Y-48104999D01*
X43000000Y-39120000D02*
X51984999Y-48104999D01*
X39299999Y-92200001D02*
X38500000Y-93000000D01*
X41500000Y-90000000D02*
X39299999Y-92200001D01*
X41500000Y-38080000D02*
X41500000Y-90000000D01*
X43000000Y-36580000D02*
X41500000Y-38080000D01*
X61500000Y-100500000D02*
X63000000Y-102000000D01*
X43000000Y-54360000D02*
X61500000Y-72860000D01*
X61500000Y-72860000D02*
X61500000Y-100500000D01*
X63000000Y-71820000D02*
X63000000Y-98000000D01*
X43000000Y-51820000D02*
X63000000Y-71820000D01*
X64500000Y-70780000D02*
X64500000Y-95500000D01*
X43000000Y-49280000D02*
X64500000Y-70780000D01*
X40425001Y-61034999D02*
X40465001Y-61034999D01*
X38500000Y-62960000D02*
X40425001Y-61034999D01*
X40465001Y-61034999D02*
X41000000Y-60500000D01*
X41000000Y-36040000D02*
X43000000Y-34040000D01*
X41000000Y-60500000D02*
X41000000Y-36040000D01*
X71000000Y-77040000D02*
X73000000Y-79040000D01*
X71000000Y-52000000D02*
X71000000Y-77040000D01*
X69500000Y-50500000D02*
X71000000Y-52000000D01*
X43000000Y-41660000D02*
X51840000Y-50500000D01*
X51840000Y-50500000D02*
X69500000Y-50500000D01*
X40000000Y-31500000D02*
X43000000Y-31500000D01*
X38500000Y-33000000D02*
X40000000Y-31500000D01*
X73000000Y-105368630D02*
X73000000Y-106500000D01*
X73000000Y-95750000D02*
X73000000Y-105368630D01*
X74000000Y-94750000D02*
X73000000Y-95750000D01*
X74000000Y-93500000D02*
X74000000Y-94750000D01*
X64227208Y-116540000D02*
X65500000Y-116540000D01*
X61174904Y-116540000D02*
X64227208Y-116540000D01*
X58540000Y-113905096D02*
X61174904Y-116540000D01*
X58540000Y-113000000D02*
X58540000Y-113905096D01*
D31*
X32000000Y-37500000D02*
X29510010Y-39989990D01*
X29510010Y-65010010D02*
X32000000Y-67500000D01*
X29510010Y-39989990D02*
X29510010Y-65010010D01*
X30929290Y-96429290D02*
X32000000Y-97500000D01*
X29510010Y-95010010D02*
X30929290Y-96429290D01*
X29510010Y-69989990D02*
X29510010Y-95010010D01*
X32000000Y-67500000D02*
X29510010Y-69989990D01*
X32000000Y-97500000D02*
X30100000Y-97500000D01*
X30100000Y-97500000D02*
X29510010Y-98089990D01*
X29510010Y-98089990D02*
X29510010Y-105010010D01*
X35250000Y-111800000D02*
X37500000Y-111800000D01*
X29510010Y-105010010D02*
X34000000Y-109500000D01*
X34000000Y-109500000D02*
X34000000Y-110550000D01*
X34000000Y-110550000D02*
X35250000Y-111800000D01*
X79500000Y-104425000D02*
X82425000Y-101500000D01*
X82425000Y-77521000D02*
X79500000Y-74596000D01*
X82425000Y-101500000D02*
X82425000Y-77521000D01*
X79500000Y-74596000D02*
X82489990Y-71606010D01*
X82489990Y-47637990D02*
X79500000Y-44648000D01*
X82489990Y-71606010D02*
X82489990Y-47637990D01*
X44490000Y-116540000D02*
X46500000Y-116540000D01*
X37500000Y-111800000D02*
X39750000Y-111800000D01*
X39750000Y-111800000D02*
X44490000Y-116540000D01*
X49920000Y-116540000D02*
X53460000Y-113000000D01*
X46500000Y-116540000D02*
X49920000Y-116540000D01*
X53460000Y-113000000D02*
X57960000Y-108500000D01*
X57960000Y-108500000D02*
X62500000Y-108500000D01*
X62500000Y-108500000D02*
X64500000Y-106500000D01*
X64500000Y-106500000D02*
X67500000Y-106500000D01*
X67500000Y-106500000D02*
X69000000Y-108000000D01*
X69000000Y-108000000D02*
X69000000Y-114500000D01*
X69000000Y-114500000D02*
X71500000Y-117000000D01*
X71500000Y-117000000D02*
X74000000Y-117000000D01*
X74000000Y-117000000D02*
X77000000Y-114000000D01*
X77000000Y-114000000D02*
X77000000Y-109500000D01*
X79500000Y-107000000D02*
X79500000Y-104425000D01*
X77000000Y-109500000D02*
X79500000Y-107000000D01*
D30*
X46500000Y-112850000D02*
X46500000Y-111000000D01*
X46500000Y-114000000D02*
X46500000Y-112850000D01*
D31*
X35500000Y-102500000D02*
X37500000Y-104500000D01*
X32000000Y-102500000D02*
X35500000Y-102500000D01*
D30*
X73000000Y-75368630D02*
X73000000Y-76500000D01*
X73000000Y-65750000D02*
X73000000Y-75368630D01*
X74000000Y-64750000D02*
X73000000Y-65750000D01*
X74000000Y-63500000D02*
X74000000Y-64750000D01*
X73000000Y-45368630D02*
X73000000Y-46500000D01*
X73000000Y-35750000D02*
X73000000Y-45368630D01*
X74000000Y-34750000D02*
X73000000Y-35750000D01*
X74000000Y-33500000D02*
X74000000Y-34750000D01*
X41920000Y-95540000D02*
X42000000Y-95460000D01*
X38500000Y-95540000D02*
X41920000Y-95540000D01*
X38500000Y-66631370D02*
X38500000Y-65500000D01*
X38500000Y-76170000D02*
X38500000Y-66631370D01*
X37500000Y-77170000D02*
X38500000Y-76170000D01*
X37500000Y-78420000D02*
X37500000Y-77170000D01*
X38500000Y-36671370D02*
X38500000Y-35540000D01*
X38500000Y-46250000D02*
X38500000Y-36671370D01*
X37500000Y-47250000D02*
X38500000Y-46250000D01*
X37500000Y-48500000D02*
X37500000Y-47250000D01*
D31*
X76540000Y-93500000D02*
X76540000Y-97960000D01*
X76540000Y-97960000D02*
X74000000Y-100500000D01*
X74000000Y-100500000D02*
X74000000Y-103000000D01*
X76540000Y-92000000D02*
X76540000Y-93500000D01*
X76540000Y-89940000D02*
X76540000Y-92000000D01*
X74600000Y-88000000D02*
X76540000Y-89940000D01*
X73000000Y-88000000D02*
X74600000Y-88000000D01*
D30*
X73040000Y-114500000D02*
X73000000Y-114540000D01*
X81000000Y-84500000D02*
X73000000Y-84500000D01*
X79850000Y-54500000D02*
X73000000Y-54500000D01*
X81000000Y-54500000D02*
X79850000Y-54500000D01*
X31000000Y-87500000D02*
X38500000Y-87500000D01*
X31000000Y-57500000D02*
X38500000Y-57500000D01*
X32150000Y-27500000D02*
X38500000Y-27500000D01*
X31000000Y-27500000D02*
X32150000Y-27500000D01*
D31*
X76540000Y-63500000D02*
X76540000Y-68460000D01*
X76540000Y-68460000D02*
X74000000Y-71000000D01*
X74000000Y-71000000D02*
X74000000Y-73000000D01*
X76540000Y-62000000D02*
X76540000Y-63500000D01*
X76540000Y-60060000D02*
X76540000Y-62000000D01*
X74480000Y-58000000D02*
X76540000Y-60060000D01*
X72880000Y-58000000D02*
X74480000Y-58000000D01*
D30*
X74000000Y-74960000D02*
X81000000Y-81960000D01*
X74000000Y-73000000D02*
X74000000Y-74960000D01*
D31*
X74000000Y-41000000D02*
X74000000Y-43000000D01*
X76540000Y-33500000D02*
X76540000Y-38460000D01*
X76540000Y-38460000D02*
X74000000Y-41000000D01*
X76540000Y-32000000D02*
X76540000Y-33500000D01*
X76540000Y-30060000D02*
X76540000Y-32000000D01*
X74480000Y-28000000D02*
X76540000Y-30060000D01*
X72880000Y-28000000D02*
X74480000Y-28000000D01*
D30*
X81000000Y-50000000D02*
X81000000Y-51960000D01*
X74000000Y-43000000D02*
X81000000Y-50000000D01*
D31*
X37500000Y-69000000D02*
X37500000Y-71500000D01*
X34960000Y-74040000D02*
X34960000Y-78420000D01*
X37500000Y-71500000D02*
X34960000Y-74040000D01*
X37400000Y-84000000D02*
X39000000Y-84000000D01*
X34960000Y-81560000D02*
X37400000Y-84000000D01*
X34960000Y-78420000D02*
X34960000Y-81560000D01*
D30*
X31000000Y-62500000D02*
X37500000Y-69000000D01*
X31000000Y-60040000D02*
X31000000Y-62500000D01*
D31*
X41000000Y-99000000D02*
X42000000Y-98000000D01*
X37500000Y-99000000D02*
X41000000Y-99000000D01*
X40400000Y-105500000D02*
X40000000Y-105100000D01*
X42000000Y-105500000D02*
X40400000Y-105500000D01*
X40000000Y-105100000D02*
X40000000Y-99000000D01*
D30*
X31000000Y-92500000D02*
X37500000Y-99000000D01*
X31000000Y-90040000D02*
X31000000Y-92500000D01*
D31*
X37500000Y-39000000D02*
X37500000Y-41000000D01*
X34960000Y-43540000D02*
X34960000Y-48500000D01*
X37500000Y-41000000D02*
X34960000Y-43540000D01*
X34960000Y-48500000D02*
X34960000Y-51460000D01*
X34960000Y-51460000D02*
X37500000Y-54000000D01*
X37500000Y-54000000D02*
X39000000Y-54000000D01*
D30*
X31000000Y-32500000D02*
X37500000Y-39000000D01*
X31000000Y-30040000D02*
X31000000Y-32500000D01*
X65500000Y-114000000D02*
X65500000Y-111000000D01*
M02*
