M48
; DRILL file {KiCad (5.1.4)-1} date 24/02/2020 00:27:29
; FORMAT={-:-/ absolute / inch / decimal}
; #@! TF.CreationDate,2020-02-24T00:27:29+00:00
; #@! TF.GenerationSoftware,Kicad,Pcbnew,(5.1.4)-1
; #@! TF.FileFunction,Plated,1,2,PTH
FMAT,2
INCH
T1C0.0280
T2C0.0307
T3C0.0315
T4C0.0354
T5C0.0394
T6C0.0433
T7C0.0472
T8C0.0551
%
G90
G05
T1
X1.4764Y-2.7165
X1.4764Y-1.5354
X2.9134Y-2.6575
X2.9134Y-2.874
X2.9134Y-3.8386
X2.9134Y-4.0551
X1.4764Y-2.9331
X1.4764Y-3.8976
X1.4764Y-4.1142
X1.4764Y-1.752
X2.9134Y-1.4764
X2.9134Y-1.6929
T2
X2.1047Y-4.4488
X2.2047Y-4.4488
X2.3047Y-4.4488
T3
X1.5157Y-3.6614
X1.5157Y-3.7614
X2.0079Y-4.0157
X2.1079Y-4.0157
X2.874Y-2.0457
X2.874Y-2.1457
X2.874Y-3.0118
X2.874Y-3.1118
X2.874Y-4.4094
X2.874Y-4.5094
X1.8307Y-4.2701
X1.8307Y-4.3701
X1.5157Y-2.2638
X1.5157Y-2.3638
X2.5984Y-3.6614
X2.6984Y-3.6614
X1.5157Y-2.4787
X1.5157Y-2.5787
X2.5394Y-3.7598
X2.6394Y-3.7598
X2.4803Y-4.0157
X2.5803Y-4.0157
X2.4016Y-4.1339
X2.5016Y-4.1339
X2.5787Y-4.3701
X2.7787Y-4.3701
X1.5157Y-1.2992
X1.5157Y-1.3992
X1.8882Y-3.6614
X1.9882Y-3.6614
X2.874Y-1.8307
X2.874Y-1.9307
X2.0063Y-3.8583
X2.1063Y-3.8583
X2.4803Y-3.8583
X2.5803Y-3.8583
X1.9472Y-3.7598
X2.0472Y-3.7598
X2.874Y-3.2268
X2.874Y-3.3268
X2.874Y-4.1929
X2.874Y-4.2929
X2.0866Y-4.1339
X2.1866Y-4.1339
X1.5157Y-3.4449
X1.5157Y-3.5449
X1.5157Y-1.0827
X1.5157Y-1.1827
T4
X1.2205Y-2.2638
X1.2205Y-2.3638
X3.189Y-2.0457
X3.189Y-2.1457
X1.2205Y-1.0827
X1.2205Y-1.1827
X1.8307Y-4.4882
X1.8307Y-4.5882
X3.189Y-4.4079
X3.189Y-4.5079
X3.189Y-3.2268
X3.189Y-3.3268
X2.5787Y-4.4882
X2.5787Y-4.5882
X1.2205Y-3.4449
X1.2205Y-3.5449
T5
X1.6929Y-1.2402
X1.6929Y-1.3402
X1.6929Y-1.4402
X1.6929Y-1.5402
X1.6929Y-1.6402
X1.6929Y-1.7402
X1.6929Y-1.8402
X1.6929Y-1.9402
X1.6929Y-2.0402
X1.6929Y-2.1402
X1.6929Y-2.2402
X1.6929Y-2.3402
X1.6929Y-2.4402
X1.6929Y-2.5402
X1.6929Y-2.6402
X1.6929Y-2.7402
X1.6929Y-2.8402
X1.6929Y-2.9402
X2.6929Y-1.2402
X2.6929Y-1.3402
X2.6929Y-1.4402
X2.6929Y-1.5402
X2.6929Y-1.6402
X2.6929Y-1.7402
X2.6929Y-1.8402
X2.6929Y-1.9402
X2.6929Y-2.0402
X2.6929Y-2.1402
X2.6929Y-2.2402
X2.6929Y-2.3402
X2.6929Y-2.4402
X2.6929Y-2.5402
X2.6929Y-2.6402
X2.6929Y-2.7402
X2.6929Y-2.8402
X2.6929Y-2.9402
T6
X2.8693Y-1.1024
X3.1693Y-1.1024
X2.874Y-3.4646
X3.174Y-3.4646
X2.8693Y-2.2835
X3.1693Y-2.2835
X1.2764Y-1.9094
X1.3764Y-1.9094
X1.4764Y-1.9094
X1.2354Y-3.3071
X1.5354Y-3.3071
X2.9134Y-2.5
X3.0134Y-2.5
X3.1134Y-2.5
X1.2764Y-3.0874
X1.3764Y-3.0874
X1.4764Y-3.0874
X2.9134Y-3.6811
X3.0134Y-3.6811
X3.1134Y-3.6811
X1.6535Y-4.1535
X1.9535Y-4.1535
X1.6535Y-3.7583
X1.6535Y-3.8583
X1.6535Y-3.9583
X1.2354Y-2.126
X1.5354Y-2.126
X2.9134Y-1.3189
X3.0134Y-1.3189
X3.1134Y-1.3189
T7
X1.4961Y-4.7047
X1.6339Y-4.7047
X1.7717Y-4.7047
X1.9094Y-4.7047
X2.0472Y-4.7047
X2.3622Y-4.7047
X2.5Y-4.7047
X2.6378Y-4.7047
X2.7756Y-4.7047
X2.9134Y-4.7047
T8
X1.2598Y-1.4764
X1.2598Y-1.6732
X1.2598Y-3.8386
X1.2598Y-4.0354
X3.1299Y-1.5609
X3.1299Y-1.7578
X1.2598Y-2.6575
X1.2598Y-2.8543
X3.1299Y-2.74
X3.1299Y-2.9369
X3.1299Y-3.9144
X3.1299Y-4.1112
T5
G00X1.2402Y-4.3622
M15
G01X1.2402Y-4.4409
M16
G05
G00X1.3189Y-4.5866
M15
G01X1.3976Y-4.5866
M16
G05
G00X1.4764Y-4.3622
M15
G01X1.4764Y-4.4409
M16
G05
T0
M30
